<svg xmlns="http://www.w3.org/2000/svg" width="800" height="800" viewBox="0 0 31.166 31.166" xml:space="preserve"><path d="m28.055 24.561-7.717-11.044V3.442c.575-.197.99-.744.99-1.386v-.592A1.464 1.464 0 0 0 19.866 0h-8.523c-.807 0-1.464.657-1.464 1.464v.593c0 .642.416 1.189.992 1.386v10l-7.76 11.118a4.194 4.194 0 0 0-.28 4.348 4.189 4.189 0 0 0 3.725 2.258h18.056a4.188 4.188 0 0 0 3.725-2.259 4.192 4.192 0 0 0-.282-4.347zM17.505 3.048v11.21c0 .097.029.191.085.27l2.028 2.904h-8.077l.906-1.298h3.135a.472.472 0 1 0 0-.945h-2.476l.512-.733a.475.475 0 0 0 .084-.271v-.294h1.879a.472.472 0 1 0 0-.944h-1.879v-1.299h1.879a.472.472 0 1 0 0-.944h-1.879V9.405h1.879a.472.472 0 1 0 0-.945h-1.879V7.162h1.879a.472.472 0 1 0 0-.944h-1.879v-3.17h3.803zm8.32 24.55a1.364 1.364 0 0 1-1.213.734H6.556c-.511 0-.976-.282-1.212-.734a1.362 1.362 0 0 1 .09-1.414l5.448-7.807h9.396l5.454 7.805c.293.42.328.963.093 1.416z"/><path d="M15.583 19.676h-3.272a.472.472 0 1 0 0 .945h3.272a.472.472 0 1 0 0-.945z"/><circle cx="10.113" cy="25.402" r="1.726"/><circle cx="17.574" cy="22.321" r=".512"/><circle cx="20.977" cy="25.302" r=".904"/><circle cx="14.723" cy="25.174" r=".776"/></svg>