<svg width="800" height="800" viewBox="0 0 24 24" data-name="Flat Line" xmlns="http://www.w3.org/2000/svg" class="icon flat-line"><path d="M11.5 19a6.5 6.5 0 0 1 6.5-6.5V5h-2V3H5a1 1 0 0 0-1 1v16a1 1 0 0 0 1 1h6.82a6.3 6.3 0 0 1-.32-2Z" style="fill:#2ca9bc;stroke-width:2"/><path d="M18 13V5l-2-2H5a1 1 0 0 0-1 1v16a1 1 0 0 0 1 1h7" style="fill:none;stroke:#000;stroke-linecap:round;stroke-linejoin:round;stroke-width:2"/><path data-name="primary" d="M16 19h4m-2-2v4M8 13h2m4-4H8m8-6v2h2Z" style="fill:none;stroke:#000;stroke-linecap:round;stroke-linejoin:round;stroke-width:2"/></svg>