<svg width="13" height="16" viewBox="0 0 13 16" fill="none" xmlns="http://www.w3.org/2000/svg">
<mask id="path-1-inside-1_18_12" fill="white">
<path fill-rule="evenodd" clip-rule="evenodd" d="M-0.000366211 16H13C12.477 12.3276 9.76583 9.5293 6.49982 9.5293C3.2338 9.5293 0.52259 12.3276 -0.000366211 16Z"/>
</mask>
<path d="M-0.000366211 16L-0.990379 15.859L-1.15286 17H-0.000366211V16ZM13 16V17H14.1525L13.99 15.859L13 16ZM-0.000366211 17H13V15H-0.000366211V17ZM6.49982 10.5293C9.14332 10.5293 11.5381 12.827 12.01 16.141L13.99 15.859C13.416 11.8282 10.3883 8.5293 6.49982 8.5293V10.5293ZM0.989646 16.141C1.46156 12.827 3.85631 10.5293 6.49982 10.5293V8.5293C2.61129 8.5293 -0.416383 11.8282 -0.990379 15.859L0.989646 16.141Z" fill="black" mask="url(#path-1-inside-1_18_12)"/>
<path d="M7.7065 4C7.7065 5.05375 7.52335 5.98406 7.24687 6.63226C7.10824 6.95728 6.95598 7.18824 6.8124 7.33062C6.6709 7.47093 6.56598 7.5 6.50035 7.5C6.43471 7.5 6.32979 7.47093 6.1883 7.33062C6.04471 7.18824 5.89246 6.95728 5.75382 6.63226C5.47734 5.98406 5.29419 5.05375 5.29419 4C5.29419 2.94625 5.47734 2.01594 5.75382 1.36774C5.89246 1.04272 6.04471 0.811756 6.1883 0.669378C6.32979 0.529067 6.43471 0.5 6.50035 0.5C6.56598 0.5 6.6709 0.529067 6.8124 0.669378C6.95598 0.811756 7.10824 1.04272 7.24687 1.36774C7.52335 2.01594 7.7065 2.94625 7.7065 4Z" stroke="black"/>
</svg>
