<svg width="800" height="800" viewBox="0 0 24 24" data-name="Line Color" xmlns="http://www.w3.org/2000/svg" class="icon line-color"><path d="M10 12V8m2 2H8m8.73 2.73a2.52 2.52 0 0 1 3.54 0h0a2.52 2.52 0 0 1 0 3.54l-4 4a2.52 2.52 0 0 1-3.54 0h0a2.52 2.52 0 0 1 0-3.54Zm1.39 5.39-3.24-3.24" style="fill:none;stroke:#2ca9bc;stroke-linecap:round;stroke-linejoin:round;stroke-width:2"/><path d="M8 21H4a1 1 0 0 1-1-1V4a1 1 0 0 1 1-1h12a1 1 0 0 1 1 1v4" style="fill:none;stroke:#000;stroke-linecap:round;stroke-linejoin:round;stroke-width:2"/></svg>